<?xml version="1.0" encoding="utf-8"?>
<!-- Generator: Adobe Illustrator 24.0.1, SVG Export Plug-In . SVG Version: 6.00 Build 0)  -->
<svg version="1.1" id="Layer_1" xmlns="http://www.w3.org/2000/svg" xmlns:xlink="http://www.w3.org/1999/xlink" x="0px" y="0px"
	 viewBox="0 0 448 512" style="enable-background:new 0 0 448 512;" xml:space="preserve">
<style type="text/css">
	.st0{fill:#4086F4;}
</style>
<path class="st0" d="M224,39C104.3,39,7,136.3,7,256s97.3,217,217,217s217-97.3,217-217S343.7,39,224,39z M224,57.9
	c109.5,0,198.1,88.6,198.1,198.1S333.5,454.1,224,454.1S25.9,365.5,25.9,256S114.5,57.9,224,57.9z M186.3,123.9l-94.3,84.9h64
	c0.2,26.9,20.6,54.1,56.5,54.1c3.4,0,7.2-0.4,10.9-0.8c-1.7,4.2-3.5,7.7-3.5,13.5c0,10.8,5.5,17.4,10.3,23.6c-15.4,1-44,2.8-65,15.9
	c-20.1,12.2-26.2,29.8-26.2,42.3c0,25.7,23.8,49.5,73.1,49.5c58.5,0,89.5-32.9,89.5-65.5c0-23.9-13.6-35.7-28.6-48.5l-12.2-9.7
	c-3.8-3-9-7.3-9-14.8c0-7.6,5.2-12.6,9.6-17.1c14.2-11.3,28.6-24.1,28.6-49.7c0-9.8-2.3-17.8-5.6-24.4l33.9-29.1v35
	c-5.6,3.3-9.4,9.3-9.4,16.3V256c0,10.4,8.5,18.9,18.9,18.9c10.4,0,18.9-8.5,18.9-18.9v-56.6c0-7-3.8-13-9.4-16.3v-49.8
	c0-0.4-0.2-0.7-0.2-1.1l9.7-8.3H186.3z M217.1,154.5c28.3,0,42.9,38.8,42.9,63.8c0,6.1-0.8,17.2-8.5,25.2
	c-5.5,5.6-14.6,9.7-23.2,9.7c-29.2,0-42.6-38.5-42.6-61.7c0-9,1.8-18.3,7.6-25.5C198.8,158.9,208.3,154.5,217.1,154.5z M233.8,308.9
	c3.5,0,5.2,0,7.9,0.4c25.9,18.7,37,28,37,45.7c0,21.4-17.3,37.5-50,37.5c-36.4,0-59.8-17.6-59.8-42.3s21.7-32.8,29.2-35.7
	C212.4,309.6,230.8,308.9,233.8,308.9z"/>
</svg>
